<?xml version="1.0" encoding="utf-8"?>
<!-- Generator: Adobe Illustrator 24.0.0, SVG Export Plug-In . SVG Version: 6.00 Build 0)  -->
<svg version="1.1" id="Calque_1" xmlns="http://www.w3.org/2000/svg" xmlns:xlink="http://www.w3.org/1999/xlink" x="0px" y="0px"
	 viewBox="0 0 250 250" style="enable-background:new 0 0 250 250;" xml:space="preserve">
<style type="text/css">
	.st0{fill:none;stroke:#336866;stroke-width:17;stroke-miterlimit:10;}
	.st1{fill:#7EA97B;}
</style>
<circle class="st0" cx="125" cy="125" r="96.6"/>
<g>
	<g>
		<path class="st1" d="M188.9,74.2c-1.7-1.7-3.9-2.6-6.3-2.6c-2.4,0-4.6,0.9-6.3,2.6l-16.3,16.4c0.2-0.9,0.3-1.8,0.3-2.7v-3.4
			c0-6.9-5.5-12.4-12.3-12.4c-6.8,0-12.3,5.6-12.3,12.4v3.4c0,2.7,0.8,5.1,2.3,7.2h-26.9c1.4-2,2.3-4.5,2.3-7.2v-3.4
			c0-6.9-5.5-12.4-12.3-12.4c-6.8,0-12.3,5.6-12.3,12.4v3.4c0,0.9,0.1,1.9,0.3,2.7L72.8,74.2c-3.5-3.5-9.1-3.5-12.6,0
			c-3.5,3.5-3.5,9.2,0,12.7l6.6,6.7c1,1,2.7,1,3.7,0c1-1,1-2.7,0-3.7l-6.6-6.7c-1.4-1.4-1.4-3.8,0-5.2c1.4-1.4,3.8-1.4,5.2,0
			l18.5,18.6c2.4,2.4,5.6,3.8,9,3.8h28.1h28c3.4,0,6.6-1.3,9-3.8l18.5-18.6c1.4-1.4,3.8-1.4,5.2,0c1.4,1.4,1.4,3.8,0,5.2l-27.5,27.8
			c-0.5,0.5-0.8,1.2-0.8,1.9v16h-17.8v-4.5v-14c0-1.5-1.2-2.6-2.6-2.6h-24c-1.4,0-2.6,1.2-2.6,2.6v14v4.5H92.2v-4.5v-11.5
			c0-0.7-0.3-1.4-0.8-1.9l-8.9-9c-1-1-2.7-1-3.7,0c-1,1-1,2.7,0,3.7l8.1,8.2v70.7c0,1.5,1.2,2.6,2.6,2.6h23c1.4,0,2.6-1.2,2.6-2.6
			V113H134v71.6c0,1.5,1.2,2.6,2.6,2.6h23c1.4,0,2.6-1.2,2.6-2.6v-19.7c0-1.5-1.2-2.6-2.6-2.6c-1.4,0-2.6,1.2-2.6,2.6V182h-6.3
			v-34.6c0-1.5-1.2-2.6-2.6-2.6s-2.6,1.2-2.6,2.6V182h-6.3v-47.9H157v10.4c0,1.5,1.2,2.6,2.6,2.6c1.4,0,2.6-1.2,2.6-2.6v-30.6
			l26.7-27C192.4,83.4,192.4,77.7,188.9,74.2z M108.2,87.9c0,3.9-3.2,7.2-7.1,7.2S94,91.8,94,87.9v-3.4c0-3.9,3.2-7.2,7.1-7.2
			s7.1,3.2,7.1,7.2V87.9z M155.2,87.9c0,3.9-3.2,7.2-7.1,7.2c-3.9,0-7.1-3.2-7.1-7.2v-3.4c0-3.9,3.2-7.2,7.1-7.2
			c3.9,0,7.1,3.2,7.1,7.2V87.9z M110,182h-6.3v-34.6c0-1.5-1.2-2.6-2.6-2.6c-1.4,0-2.6,1.2-2.6,2.6V182h-6.3v-47.9H110L110,182
			L110,182z"/>
	</g>
</g>
</svg>
