<?xml version="1.0" encoding="utf-8"?>
<!-- Generator: Adobe Illustrator 24.0.0, SVG Export Plug-In . SVG Version: 6.00 Build 0)  -->
<svg version="1.1" id="Calque_1" xmlns="http://www.w3.org/2000/svg" xmlns:xlink="http://www.w3.org/1999/xlink" x="0px" y="0px"
	 viewBox="0 0 500 191" style="enable-background:new 0 0 500 191;" xml:space="preserve">
<style type="text/css">
	.st0{fill:#FFFFFF;}
</style>
<g>
	<path class="st0" d="M18.2,66.3c-8,19.6-7.8,41.1,0.4,60.6c7.8,18.5,22.1,33.1,40.3,41.4l-4.2,10.4c-0.4,1-0.3,2.2,0.4,3
		c0.7,0.9,1.7,1.3,2.8,1.2l48.4-5.4c1.1-0.1,2.1-0.9,2.5-1.9c0.4-1.1,0.2-2.3-0.5-3.1l-30.9-37.7c-0.7-0.8-1.8-1.3-2.9-1.1
		s-2,0.9-2.4,1.9l-4.2,10.2C50.8,137.7,39,121.1,37,101.9c-0.2-1.7-1.7-2.9-3.4-2.8c-1.7,0.2-2.9,1.7-2.8,3.4
		c2.4,22.5,16.9,41.7,37.8,50.2c0.8,0.3,1.6,0.3,2.4,0c0.8-0.3,1.4-0.9,1.7-1.7l3.4-8.4l24,29.3l-37.6,4.2l3.4-8.4
		c0.6-1.6-0.1-3.4-1.7-4C26.8,148.7,8.8,106,24,68.7c7.1-17.5,20.3-31.2,37.4-39l7.9,9.6C53.7,45.4,41.4,57.5,35,73.2
		c-0.6,1.6,0.1,3.4,1.7,4c1.6,0.6,3.4-0.1,4-1.7C47,60.2,59.6,48.6,75.4,43.7c1-0.3,1.8-1.1,2-2.1c0.2-0.8,0.1-1.7-0.3-2.4
		C77.1,39.1,64.7,24,64.7,24c-0.9-1.1-2.3-1.4-3.6-0.9C41.5,31.3,26.3,46.6,18.2,66.3L18.2,66.3z"/>
	<path class="st0" d="M108.6,58.7c1.1-0.2,2-0.9,2.4-1.9l4.2-10.2c9.6,4.6,17.3,11.6,22.7,20.1l0.2,0.3c1,2.2,3.4,2.9,4.9,2.1
		c1-0.6,1.6-1.9,1.5-3.3c-6.6-11.4-16.8-20.8-29.9-26.1c-1.6-0.6-3.4,0.1-4,1.7l-3.4,8.4l-24-29.3l37.6-4.2l-3.4,8.4
		c-0.6,1.6,0.1,3.4,1.7,4c15.9,6.5,28.3,17.9,36.1,31.8c1.4,2.5,2.6,5,3.7,7.6c0.5,0.9,1.7,2.8,4.1,4.1c1.8,1,3.5,1.3,4.4,1.3
		c-0.8-2.7-1.8-5.3-2.9-7.9c-1.2-2.8-2.5-5.6-4-8.2C152.3,42.6,139.7,31,124.3,24l4.2-10.4c0.4-1,0.3-2.2-0.4-3
		c-0.7-0.9-1.7-1.3-2.8-1.2l-48.4,5.4c-1.1,0.1-2.1,0.9-2.5,1.9c-0.4,1.1-0.2,2.2,0.5,3.1l30.9,37.7
		C106.4,58.4,107.5,58.8,108.6,58.7z"/>
	<path class="st0" d="M158.1,126.4c-7.3,16.2-20.1,28.9-36.3,36.3l-7.9-9.6c12.4-4.9,22.7-13.5,29.6-24.7c0.1-1.4-0.5-2.8-1.6-3.4
		c-1.5-0.8-3.8-0.1-4.9,1.9c-6.9,10.3-17.2,18-29.3,21.7c-1,0.3-1.8,1.1-2,2.1c-0.3,1-0.1,2.1,0.6,2.9l12.1,14.8
		c0.9,1.1,2.3,1.4,3.6,0.9c19.6-8.2,34.9-23.6,42.9-43.3c0.6-1.5,1.2-3.1,1.7-4.6c-0.7-0.1-2.6-0.4-4.7,0.6
		C159.3,123.3,158.3,125.8,158.1,126.4z"/>
</g>
<g>
	<g>
		<path class="st0" d="M304.5,54.4c-0.9-0.9-2.1-1.4-3.3-1.4c-1.3,0-2.4,0.5-3.3,1.4l-8.6,8.7c0.1-0.5,0.2-0.9,0.2-1.4v-1.8
			c0-3.6-2.9-6.6-6.5-6.6c-3.6,0-6.5,2.9-6.5,6.6v1.8c0,1.4,0.4,2.7,1.2,3.8h-14.2c0.7-1.1,1.2-2.4,1.2-3.8v-1.8
			c0-3.6-2.9-6.6-6.5-6.6c-3.6,0-6.5,2.9-6.5,6.6v1.8c0,0.5,0.1,1,0.2,1.4l-8.6-8.7c-1.8-1.8-4.8-1.8-6.6,0c-1.8,1.8-1.8,4.8,0,6.7
			l3.5,3.5c0.5,0.5,1.4,0.5,2,0c0.5-0.5,0.5-1.4,0-2l-3.5-3.5c-0.8-0.8-0.8-2,0-2.8c0.8-0.8,2-0.8,2.7,0l9.7,9.8
			c1.3,1.3,2.9,2,4.7,2h14.8h14.8c1.8,0,3.5-0.7,4.7-2l9.7-9.8c0.8-0.8,2-0.8,2.7,0c0.8,0.8,0.8,2,0,2.8L288,73.8
			c-0.3,0.3-0.4,0.6-0.4,1v8.4h-9.4v-2.4v-7.4c0-0.8-0.6-1.4-1.4-1.4h-12.6c-0.8,0-1.4,0.6-1.4,1.4v7.4v2.4h-9.4v-2.4v-6.1
			c0-0.4-0.1-0.7-0.4-1l-4.7-4.7c-0.5-0.5-1.4-0.5-2,0c-0.5,0.5-0.5,1.4,0,2l4.3,4.3v37.3c0,0.8,0.6,1.4,1.4,1.4h12.1
			c0.8,0,1.4-0.6,1.4-1.4V74.8h9.9v37.8c0,0.8,0.6,1.4,1.4,1.4H289c0.8,0,1.4-0.6,1.4-1.4v-10.4c0-0.8-0.6-1.4-1.4-1.4
			c-0.8,0-1.4,0.6-1.4,1.4v9h-3.3V93c0-0.8-0.6-1.4-1.4-1.4c-0.8,0-1.4,0.6-1.4,1.4v18.2h-3.3V86h9.4v5.5c0,0.8,0.6,1.4,1.4,1.4
			c0.8,0,1.4-0.6,1.4-1.4V75.3l14.1-14.2C306.3,59.2,306.3,56.2,304.5,54.4z M261.9,61.6c0,2.1-1.7,3.8-3.7,3.8s-3.7-1.7-3.7-3.8
			v-1.8c0-2.1,1.7-3.8,3.7-3.8s3.7,1.7,3.7,3.8V61.6z M286.7,61.6c0,2.1-1.7,3.8-3.7,3.8c-2.1,0-3.7-1.7-3.7-3.8v-1.8
			c0-2.1,1.7-3.8,3.7-3.8c2.1,0,3.7,1.7,3.7,3.8V61.6z M262.9,111.2h-3.3V93c0-0.8-0.6-1.4-1.4-1.4c-0.8,0-1.4,0.6-1.4,1.4v18.2
			h-3.3V86h9.4V111.2L262.9,111.2z"/>
	</g>
</g>
<g>
	<path class="st0" d="M54.9,112.4c-0.4-0.5-0.7-1-0.7-1.7V79.6c0-0.7,0.2-1.2,0.7-1.7s1-0.7,1.7-0.7c0.7,0,1.2,0.2,1.7,0.7
		s0.7,1,0.7,1.7v28.8h16.7c0.7,0,1.2,0.2,1.7,0.7c0.5,0.5,0.7,1,0.7,1.7s-0.2,1.2-0.7,1.7s-1,0.7-1.7,0.7h-19
		C55.9,113.1,55.3,112.9,54.9,112.4z"/>
	<path class="st0" d="M100,89.4c1.9,1.1,3.4,2.7,4.6,4.6c1.1,1.9,1.7,4.1,1.7,6.5v10.3c0,0.7-0.2,1.2-0.7,1.7
		c-0.4,0.4-1,0.7-1.7,0.7c-0.7,0-1.2-0.2-1.7-0.7c-0.4-0.4-0.7-1-0.7-1.7v-1.7c-1.1,1.3-2.4,2.3-3.9,3.1c-1.5,0.7-3.2,1.1-5,1.1
		c-2.2,0-4.2-0.6-6-1.7s-3.2-2.6-4.2-4.6c-1-1.9-1.5-4.1-1.5-6.5s0.6-4.6,1.7-6.5c1.1-1.9,2.6-3.5,4.6-4.6c1.9-1.1,4.1-1.7,6.5-1.7
		C96,87.8,98.1,88.3,100,89.4z M97.8,108c1.2-0.8,2.2-1.8,2.9-3.1c0.7-1.3,1.1-2.8,1.1-4.4c0-1.6-0.4-3.1-1.1-4.4
		c-0.7-1.3-1.7-2.4-2.9-3.1c-1.2-0.8-2.6-1.1-4.2-1.1c-1.5,0-2.9,0.4-4.2,1.1c-1.2,0.8-2.2,1.8-2.9,3.1c-0.7,1.3-1.1,2.8-1.1,4.4
		c0,1.6,0.4,3.1,1.1,4.4c0.7,1.3,1.7,2.3,2.9,3.1c1.2,0.8,2.6,1.1,4.2,1.1C95.1,109.1,96.5,108.8,97.8,108z"/>
	<path class="st0" d="M132.1,111.1c-2.7-1.6-4.9-3.8-6.4-6.7s-2.3-5.9-2.3-9.3c0-3.4,0.8-6.5,2.3-9.3c1.6-2.8,3.7-5,6.4-6.7
		s5.7-2.5,9-2.5c2.3,0,4.3,0.3,6,0.9c1.7,0.6,3.4,1.6,5.2,3c0.4,0.3,0.6,0.6,0.7,0.9c0.1,0.3,0.2,0.6,0.2,1c0,0.6-0.2,1.1-0.7,1.5
		c-0.4,0.4-1,0.6-1.5,0.6c-0.6,0-1.1-0.2-1.6-0.6c-1.3-1.1-2.5-1.8-3.7-2.3c-1.2-0.5-2.7-0.7-4.6-0.7c-2.4,0-4.6,0.6-6.6,1.9
		c-2,1.3-3.6,3-4.8,5.1c-1.2,2.2-1.8,4.5-1.8,7.1c0,2.6,0.6,4.9,1.8,7.1c1.2,2.1,2.8,3.8,4.8,5.1c2,1.3,4.2,1.9,6.6,1.9
		c2.9,0,5.8-1,8.5-3c0.5-0.4,1-0.6,1.5-0.6c0.6,0,1.1,0.2,1.4,0.6c0.4,0.4,0.6,1,0.6,1.6c0,0.6-0.2,1.2-0.7,1.7
		c-3.3,2.7-7.1,4-11.3,4C137.8,113.6,134.8,112.7,132.1,111.1z"/>
	<path class="st0" d="M177.4,89.1c1.7,0.9,3,2.3,4,4c1,1.8,1.4,3.9,1.4,6.4v11.3c0,0.7-0.2,1.2-0.7,1.7c-0.4,0.4-1,0.7-1.7,0.7
		c-0.7,0-1.2-0.2-1.7-0.7c-0.4-0.4-0.7-1-0.7-1.7V99.5c0-2.5-0.7-4.4-2-5.6c-1.3-1.3-3.1-1.9-5.3-1.9c-1.3,0-2.5,0.3-3.5,0.8
		c-1.1,0.5-1.9,1.2-2.5,2.1c-0.6,0.9-0.9,1.9-0.9,3v13c0,0.7-0.2,1.2-0.6,1.7c-0.4,0.4-1,0.7-1.7,0.7c-0.7,0-1.2-0.2-1.7-0.7
		c-0.4-0.4-0.7-1-0.7-1.7V79.5c0-0.7,0.2-1.3,0.7-1.7c0.4-0.4,1-0.6,1.7-0.6c0.7,0,1.3,0.2,1.7,0.6c0.4,0.4,0.6,1,0.6,1.7v11.3
		c1-1,2.1-1.7,3.5-2.3c1.3-0.5,2.8-0.8,4.3-0.8C173.8,87.7,175.7,88.2,177.4,89.1z"/>
	<path class="st0" d="M207.3,89.4c1.9,1.1,3.4,2.7,4.6,4.6c1.1,1.9,1.7,4.1,1.7,6.5v10.3c0,0.7-0.2,1.2-0.7,1.7
		c-0.4,0.4-1,0.7-1.7,0.7c-0.7,0-1.2-0.2-1.7-0.7c-0.4-0.4-0.7-1-0.7-1.7v-1.7c-1.1,1.3-2.4,2.3-3.9,3.1c-1.5,0.7-3.2,1.1-5,1.1
		c-2.2,0-4.2-0.6-6-1.7s-3.2-2.6-4.2-4.6c-1-1.9-1.5-4.1-1.5-6.5s0.6-4.6,1.7-6.5c1.1-1.9,2.6-3.5,4.6-4.6c1.9-1.1,4.1-1.7,6.5-1.7
		C203.2,87.8,205.4,88.3,207.3,89.4z M205,108c1.2-0.8,2.2-1.8,2.9-3.1c0.7-1.3,1.1-2.8,1.1-4.4c0-1.6-0.4-3.1-1.1-4.4
		c-0.7-1.3-1.7-2.4-2.9-3.1c-1.2-0.8-2.6-1.1-4.2-1.1c-1.5,0-2.9,0.4-4.2,1.1c-1.2,0.8-2.2,1.8-2.9,3.1c-0.7,1.3-1.1,2.8-1.1,4.4
		c0,1.6,0.4,3.1,1.1,4.4c0.7,1.3,1.7,2.3,2.9,3.1c1.2,0.8,2.6,1.1,4.2,1.1C202.4,109.1,203.8,108.8,205,108z M194.1,84.3
		c-0.4-0.4-0.7-0.8-0.7-1.4c0-0.8,0.4-1.5,1.1-2l5.2-3.4c0.4-0.2,0.8-0.4,1.2-0.4c0.5,0,0.9,0.1,1.2,0.4l5.1,3.4
		c0.7,0.6,1.1,1.2,1.1,2c0,0.6-0.2,1-0.6,1.4c-0.4,0.4-1,0.5-1.7,0.5c-0.6,0-1.1-0.2-1.5-0.5l-3.6-2.6l-3.6,2.6
		c-0.4,0.3-0.9,0.5-1.5,0.5C195.1,84.8,194.5,84.6,194.1,84.3z"/>
	<path class="st0" d="M231.5,109.1c0.4,0.4,0.6,1,0.6,1.7c0,0.7-0.3,1.2-0.8,1.7c-0.5,0.4-1.2,0.6-2,0.6h-0.8
		c-1.5,0-2.9-0.4-4.1-1.2c-1.2-0.8-2.2-1.8-2.9-3.2c-0.7-1.3-1.1-2.9-1.1-4.6V92.8h-2.1c-0.6,0-1.2-0.2-1.6-0.6
		c-0.4-0.4-0.6-0.8-0.6-1.4c0-0.6,0.2-1.1,0.6-1.5c0.4-0.4,0.9-0.6,1.6-0.6h2.1v-6.6c0-0.7,0.2-1.2,0.6-1.7c0.4-0.4,1-0.6,1.7-0.6
		c0.7,0,1.2,0.2,1.7,0.6c0.4,0.4,0.6,1,0.6,1.7v6.6h3.9c0.6,0,1.2,0.2,1.6,0.6c0.4,0.4,0.6,0.9,0.6,1.5c0,0.6-0.2,1-0.6,1.4
		c-0.4,0.4-0.9,0.6-1.6,0.6h-3.9v11.4c0,1.2,0.3,2.3,1,3.1c0.7,0.8,1.5,1.2,2.5,1.2h1.6C230.7,108.5,231.1,108.7,231.5,109.1z"/>
	<path class="st0" d="M237.4,82.9c-0.6-0.6-0.9-1.3-0.9-2.1s0.3-1.5,0.9-2.1c0.6-0.6,1.3-0.9,2.1-0.9c0.8,0,1.5,0.3,2.1,0.9
		c0.6,0.6,0.9,1.3,0.9,2.1s-0.3,1.5-0.9,2.1c-0.6,0.6-1.3,0.9-2.1,0.9C238.7,83.8,238,83.5,237.4,82.9z M237.9,112.4
		c-0.4-0.4-0.7-1-0.7-1.7V90.3c0-0.7,0.2-1.3,0.7-1.7c0.4-0.4,1-0.6,1.7-0.6c0.7,0,1.3,0.2,1.7,0.6c0.4,0.4,0.6,1,0.6,1.7v20.5
		c0,0.7-0.2,1.2-0.6,1.7c-0.4,0.4-1,0.7-1.7,0.7C238.9,113.1,238.3,112.9,237.9,112.4z"/>
	<path class="st0" d="M302.3,111.6c-1.9-1.1-3.4-2.6-4.5-4.5s-1.6-4.1-1.6-6.6c0-2.5,0.5-4.7,1.6-6.6c1.1-1.9,2.6-3.4,4.5-4.5
		c1.9-1.1,4.1-1.6,6.6-1.6c2.4,0,4.6,0.5,6.5,1.6c1.9,1.1,3.4,2.6,4.5,4.5c1.1,1.9,1.6,4.1,1.6,6.6c0,2.5-0.5,4.6-1.6,6.6
		s-2.6,3.4-4.5,4.5c-1.9,1.1-4.1,1.6-6.6,1.6C306.4,113.3,304.3,112.7,302.3,111.6z M313.1,108c1.2-0.7,2.2-1.8,2.9-3.1
		c0.7-1.3,1-2.8,1-4.4c0-1.7-0.3-3.1-1-4.5c-0.7-1.3-1.7-2.3-2.9-3.1s-2.6-1.1-4.2-1.1c-1.6,0-3,0.4-4.2,1.1s-2.2,1.8-2.9,3.1
		c-0.7,1.3-1.1,2.8-1.1,4.5c0,1.7,0.4,3.1,1.1,4.4c0.7,1.3,1.7,2.3,2.9,3.1s2.6,1.1,4.2,1.1C310.5,109.1,311.9,108.8,313.1,108z"/>
	<path class="st0" d="M345.6,89.1c1.7,0.9,3,2.3,4,4c1,1.8,1.4,3.9,1.4,6.4v11.3c0,0.7-0.2,1.2-0.7,1.7c-0.4,0.4-1,0.7-1.7,0.7
		s-1.2-0.2-1.7-0.7c-0.4-0.4-0.7-1-0.7-1.7V99.5c0-2.5-0.7-4.4-2-5.6c-1.3-1.3-3.1-1.9-5.3-1.9c-1.3,0-2.5,0.3-3.5,0.8
		c-1.1,0.5-1.9,1.2-2.5,2.1c-0.6,0.9-0.9,1.9-0.9,3v13c0,0.7-0.2,1.2-0.6,1.7c-0.4,0.4-1,0.7-1.7,0.7c-0.7,0-1.2-0.2-1.7-0.7
		c-0.4-0.4-0.7-1-0.7-1.7V90.3c0-0.7,0.2-1.3,0.7-1.7c0.4-0.4,1-0.6,1.7-0.6c0.7,0,1.3,0.2,1.7,0.6c0.4,0.4,0.6,1,0.6,1.7v0.5
		c1-1,2.1-1.7,3.5-2.3c1.3-0.5,2.8-0.8,4.3-0.8C342.1,87.7,344,88.2,345.6,89.1z"/>
	<path class="st0" d="M375.9,89.1c1.7,0.9,3,2.3,4,4c1,1.8,1.4,3.9,1.4,6.4v11.3c0,0.7-0.2,1.2-0.7,1.7c-0.4,0.4-1,0.7-1.7,0.7
		s-1.2-0.2-1.7-0.7c-0.4-0.4-0.7-1-0.7-1.7V99.5c0-2.5-0.7-4.4-2-5.6c-1.3-1.3-3.1-1.9-5.3-1.9c-1.3,0-2.5,0.3-3.5,0.8
		c-1.1,0.5-1.9,1.2-2.5,2.1c-0.6,0.9-0.9,1.9-0.9,3v13c0,0.7-0.2,1.2-0.6,1.7c-0.4,0.4-1,0.7-1.7,0.7c-0.7,0-1.2-0.2-1.7-0.7
		c-0.4-0.4-0.7-1-0.7-1.7V90.3c0-0.7,0.2-1.3,0.7-1.7c0.4-0.4,1-0.6,1.7-0.6c0.7,0,1.3,0.2,1.7,0.6c0.4,0.4,0.6,1,0.6,1.7v0.5
		c1-1,2.1-1.7,3.5-2.3c1.3-0.5,2.8-0.8,4.3-0.8C372.3,87.7,374.2,88.2,375.9,89.1z"/>
	<path class="st0" d="M410,101.6c-0.4,0.4-0.9,0.6-1.5,0.6H391c0.3,2.1,1.3,3.9,2.9,5.2c1.6,1.3,3.6,2,5.9,2c0.9,0,1.9-0.2,2.9-0.5
		c1-0.3,1.8-0.8,2.5-1.2c0.4-0.3,0.9-0.5,1.5-0.5c0.6,0,1,0.2,1.4,0.5c0.6,0.5,0.8,1,0.8,1.6c0,0.6-0.2,1-0.7,1.4
		c-1,0.8-2.3,1.5-3.9,2c-1.5,0.5-3,0.8-4.4,0.8c-2.5,0-4.8-0.5-6.8-1.6c-2-1.1-3.5-2.6-4.7-4.5c-1.1-1.9-1.7-4.1-1.7-6.6
		c0-2.5,0.5-4.7,1.6-6.6c1.1-1.9,2.5-3.5,4.4-4.6c1.9-1.1,4-1.6,6.4-1.6c2.4,0,4.4,0.5,6.1,1.6c1.7,1,3,2.5,4,4.4
		c0.9,1.9,1.4,4,1.4,6.4C410.6,100.7,410.4,101.2,410,101.6z M393.7,93.5c-1.4,1.2-2.3,2.9-2.6,4.9h15.3c-0.3-2.1-1-3.7-2.3-4.9
		c-1.3-1.2-2.9-1.8-4.9-1.8C396.9,91.7,395,92.3,393.7,93.5z"/>
	<path class="st0" d="M431.6,88.4c0.9,0.5,1.4,1.1,1.4,1.8c0,0.2,0,0.4,0,0.5c-0.3,1-0.9,1.5-1.8,1.5c-0.2,0-0.4,0-0.7-0.1
		c-1.2-0.2-2.2-0.3-3-0.3c-2.2,0-4,0.5-5.3,1.5c-1.3,1-2,2.4-2,4.1v13.4c0,0.7-0.2,1.3-0.6,1.7c-0.4,0.4-1,0.6-1.7,0.6
		c-0.7,0-1.3-0.2-1.7-0.6c-0.4-0.4-0.6-1-0.6-1.7V90.2c0-0.7,0.2-1.3,0.6-1.7c0.4-0.4,1-0.6,1.7-0.6c1.5,0,2.3,0.8,2.3,2.3v0.9
		c0.9-1.1,2.1-1.9,3.4-2.5c1.3-0.6,2.8-0.9,4.3-0.9C429.4,87.7,430.7,87.9,431.6,88.4z"/>
	<path class="st0" d="M437.3,82.9c-0.6-0.6-0.9-1.3-0.9-2.1s0.3-1.5,0.9-2.1c0.6-0.6,1.3-0.9,2.1-0.9s1.5,0.3,2.1,0.9
		c0.6,0.6,0.9,1.3,0.9,2.1s-0.3,1.5-0.9,2.1c-0.6,0.6-1.3,0.9-2.1,0.9S437.9,83.5,437.3,82.9z M437.8,112.4c-0.4-0.4-0.7-1-0.7-1.7
		V90.3c0-0.7,0.2-1.3,0.7-1.7c0.4-0.4,1-0.6,1.7-0.6c0.7,0,1.3,0.2,1.7,0.6c0.4,0.4,0.6,1,0.6,1.7v20.5c0,0.7-0.2,1.2-0.6,1.7
		c-0.4,0.4-1,0.7-1.7,0.7C438.8,113.1,438.3,112.9,437.8,112.4z"/>
	<path class="st0" d="M471.5,101.6c-0.4,0.4-0.9,0.6-1.5,0.6h-17.5c0.3,2.1,1.3,3.9,2.9,5.2c1.6,1.3,3.6,2,5.9,2
		c0.9,0,1.9-0.2,2.9-0.5c1-0.3,1.8-0.8,2.5-1.2c0.4-0.3,0.9-0.5,1.5-0.5c0.6,0,1,0.2,1.4,0.5c0.6,0.5,0.8,1,0.8,1.6
		c0,0.6-0.2,1-0.7,1.4c-1,0.8-2.3,1.5-3.9,2c-1.5,0.5-3,0.8-4.4,0.8c-2.5,0-4.8-0.5-6.8-1.6c-2-1.1-3.5-2.6-4.7-4.5
		c-1.1-1.9-1.7-4.1-1.7-6.6c0-2.5,0.5-4.7,1.6-6.6c1.1-1.9,2.5-3.5,4.4-4.6c1.9-1.1,4-1.6,6.4-1.6c2.4,0,4.4,0.5,6.1,1.6
		c1.7,1,3,2.5,4,4.4c0.9,1.9,1.4,4,1.4,6.4C472.1,100.7,471.9,101.2,471.5,101.6z M455.2,93.5c-1.4,1.2-2.3,2.9-2.6,4.9h15.3
		c-0.3-2.1-1-3.7-2.3-4.9c-1.3-1.2-2.9-1.8-4.9-1.8C458.4,91.7,456.5,92.3,455.2,93.5z"/>
</g>
</svg>
